<svg width="128" height="128" viewBox="0 0 128 128" xmlns="http://www.w3.org/2000/svg">
  <defs>
    <linearGradient id="grad" x1="0%" y1="0%" x2="100%" y2="100%">
      <stop offset="0%" style="stop-color:#4A90E2;stop-opacity:1" />
      <stop offset="100%" style="stop-color:#7B68EE;stop-opacity:1" />
    </linearGradient>
  </defs>
  
  <!-- Brain/thinking icon -->
  <circle cx="64" cy="64" r="56" fill="url(#grad)" opacity="0.2"/>
  <path d="M 64 20 Q 90 30, 95 50 Q 100 70, 90 85 Q 80 95, 64 95 Q 48 95, 38 85 Q 28 70, 33 50 Q 38 30, 64 20 Z" 
        fill="none" stroke="url(#grad)" stroke-width="4"/>
  
  <!-- Neural connections -->
  <circle cx="50" cy="45" r="6" fill="url(#grad)"/>
  <circle cx="78" cy="45" r="6" fill="url(#grad)"/>
  <circle cx="64" cy="65" r="6" fill="url(#grad)"/>
  <circle cx="45" cy="75" r="6" fill="url(#grad)"/>
  <circle cx="83" cy="75" r="6" fill="url(#grad)"/>
  
  <line x1="50" y1="45" x2="64" y2="65" stroke="url(#grad)" stroke-width="2" opacity="0.6"/>
  <line x1="78" y1="45" x2="64" y2="65" stroke="url(#grad)" stroke-width="2" opacity="0.6"/>
  <line x1="64" y1="65" x2="45" y2="75" stroke="url(#grad)" stroke-width="2" opacity="0.6"/>
  <line x1="64" y1="65" x2="83" y2="75" stroke="url(#grad)" stroke-width="2" opacity="0.6"/>
</svg>
